<svg xmlns="http://www.w3.org/2000/svg" width="16" height="16" viewBox="0 0 16 16"><g><g><path fill="#f3f3f3" d="M15.739 15.764a.82.82 0 0 1-.577.235.82.82 0 0 1-.6-.258l-3.788-3.99a6.253 6.253 0 0 1-3.654 1.168c-3.516 0-6.377-2.898-6.377-6.46C.743 2.898 3.603 0 7.12 0s6.378 2.899 6.378 6.46c0 1.525-.53 2.99-1.496 4.153l3.76 3.96a.851.851 0 0 1-.023 1.192zM2.406 6.46c0 2.633 2.115 4.775 4.714 4.775 2.6 0 4.715-2.142 4.715-4.775 0-2.633-2.115-4.774-4.715-4.774-2.599 0-4.714 2.141-4.714 4.774z"/></g></g></svg>